<svg xmlns="http://www.w3.org/2000/svg" xmlns:svg="http://www.w3.org/2000/svg" id="svg8" width="256mm" height="256mm" version="1.1" viewBox="0 0 256 256"><metadata id="metadata5"/><g id="layer1" transform="translate(140.20094,116.51197)"><g id="g1049" transform="matrix(1.5592576,0,0,1.5592576,101.54598,-100.94112)"><rect id="rect1037" width="134.028" height="97.566" x="-139.964" y="41.685" ry="12.829" style="fill:#000;stroke:#000;stroke-width:.47457451;stroke-linejoin:round;stroke-miterlimit:4;stroke-dasharray:none;stroke-opacity:1"/><path id="path880-3" d="m -8.1375058,40.327937 c -2.1774602,-1.76164 -5.3010702,-3.38114 -7.9470502,-4.12031 -1.63646,-0.45716 -4.39279,-0.48044 -56.885427,-0.48044 -52.492627,0 -55.248947,0.0233 -56.885407,0.48044 -2.40957,0.67313 -5.75894,2.33582 -7.40621,3.67659 -2.5518,2.07699 -2.47287,2.04749 -1.89461,0.708 1.26283,-2.92526 10.00981,-22.12085 11.31604,-24.8335 0.80383,-1.66933 1.9797,-3.76131 2.61303,-4.64884 1.56847,-2.1980199 4.18214,-4.5602999 5.94792,-5.3758399 l 1.46237,-0.67541 23.065274,-0.23533 c 13.012245,-0.13277 32.501155,-0.1378 44.714583,-0.0115 l 21.649304,0.22378 1.76732,0.83728 c 2.33974,1.10848 3.87143,2.56998 5.922883,5.6514999 1.85426,2.78532 2.93756,4.98583 9.83084,19.96955 2.5439902,5.5298 4.6799002,10.14347 4.7464602,10.25261 0.22405,0.36737 -0.0351,0.18512 -2.01732,-1.41853 z" style="fill:#000;stroke-width:.26458332"/><circle id="path956" cx="-122.922" cy="64.35" r="8.113" style="fill:#fff;stroke-width:.37862998"/><rect id="rect1035" width="82.312" height="77.301" x="-98.432" y="51.681" ry="5.67" style="fill:#fff;stroke:#fff;stroke-width:.86523747;stroke-linejoin:round;stroke-miterlimit:4;stroke-dasharray:none;stroke-opacity:1"/><rect id="rect1003" width="19.732" height="66.795" x="-93.155" y="56.962" ry="5.103" style="fill:#000;stroke:#000;stroke-width:.37599999;stroke-linejoin:round;stroke-miterlimit:4;stroke-dasharray:none;stroke-opacity:1"/><circle id="path956-6" cx="-83.428" cy="66.945" r="5.156" style="fill:#fff;stroke-width:.24063666"/><rect id="rect1003-3" width="19.732" height="66.795" x="-67.349" y="56.987" ry="5.103" style="fill:#000;stroke:#000;stroke-width:.37599999;stroke-linejoin:round;stroke-miterlimit:4;stroke-dasharray:none;stroke-opacity:1"/><circle id="path956-6-7" cx="-57.372" cy="66.999" r="5.156" style="fill:#fff;stroke-width:.24063666"/><rect id="rect1003-3-5" width="19.732" height="66.795" x="-41.264" y="56.968" ry="5.103" style="fill:#000;stroke:#000;stroke-width:.37599999;stroke-linejoin:round;stroke-miterlimit:4;stroke-dasharray:none;stroke-opacity:1"/><circle id="path956-6-7-5" cx="-31.424" cy="66.928" r="5.156" style="fill:#fff;stroke-width:.24063666"/></g></g></svg>