<svg xmlns="http://www.w3.org/2000/svg" xmlns:svg="http://www.w3.org/2000/svg" id="svg2" width="127.604" height="127.604" version="1.1" viewBox="0 0 127.604 127.604"><metadata id="metadata7"/><g id="layer1" transform="translate(-32.198206,-892.56036)"><path style="opacity:1;fill:#fc0;fill-opacity:1;fill-rule:evenodd;stroke:none;stroke-width:.72619933;stroke-linecap:butt;stroke-linejoin:round;stroke-miterlimit:4;stroke-dasharray:none;stroke-dashoffset:0;stroke-opacity:1" id="path4271" d="M 63.802734 0 A 63.801796 63.801796 0 0 0 0 63.802734 A 63.801796 63.801796 0 0 0 63.802734 127.60352 A 63.801796 63.801796 0 0 0 127.60352 63.802734 A 63.801796 63.801796 0 0 0 63.802734 0 z M 63.804688 17.378906 A 46.424883 46.424883 0 0 1 108.35156 50.955078 L 19.228516 50.955078 A 46.424883 46.424883 0 0 1 63.804688 17.378906 z M 63.720703 71.193359 A 8.8181351 8.8181351 0 0 1 72.539062 80.011719 A 8.8181351 8.8181351 0 0 1 67.535156 87.955078 L 69.291016 91.808594 C 70.512076 94.486064 72.271302 98.340347 73.201172 100.37305 L 74.892578 104.06836 L 63.726562 104.06836 C 53.201806 104.06836 52.570604 104.04296 52.728516 103.61523 C 52.820656 103.36563 54.556828 99.509132 56.583984 95.044922 L 59.820312 87.910156 A 8.8181351 8.8181351 0 0 1 54.902344 80.011719 A 8.8181351 8.8181351 0 0 1 63.720703 71.193359 z" transform="translate(32.198206,892.56036)"/></g></svg>